# xmcd
#
# Track frame offsets: 
#        150
#        37041
#        65952
#        95724
#        123645
#        150836
#        179040
#        207999
#        239664
#        285996
#        311794
#
# Disc length: 4479 seconds
#
# Revision: 3
# Processed by: cddbd v1.5.2PL0 Copyright (c) Steve Scherf et al.
# Submitted via: ExactAudioCopy v1.1
#
DISCID=aa117d0b
DTITLE=Various Artist - Venti Compilation 3 [CD 2)
DYEAR=2015
DGENRE=Disco
TTITLE0=Mention - Dreams (Vocal version)
TTITLE1=Raffaele Fiume - Emotion (Extended version)
TTITLE2=Gazebo - Queen Of Burlesque (80s remix)
TTITLE3=Queen Michi - All or nothing (Vocal version)
TTITLE4=Silver Boy - Disco hit (Hit version)
TTITLE5=Felli - Palagianello ricordi (Extended version)
TTITLE6=Jaco - Hey operator (Rum version)
TTITLE7=Jimmy Mc. Foy - Love me the way you like (Vocal version)
TTITLE8=Juno Gang - Everybody comes (Extended version)
TTITLE9=Graziano - Jerba (I Venti version)
TTITLE10=Ryan Paris featuring Valerie Flor - Sensation of love
EXTD=
EXTT0=
EXTT1=
EXTT2=
EXTT3=
EXTT4=
EXTT5=
EXTT6=
EXTT7=
EXTT8=
EXTT9=
EXTT10=
PLAYORDER=
